<svg width="28" height="36" viewBox="0 0 28 36" fill="none" xmlns="http://www.w3.org/2000/svg">
<g opacity="0.6">
<path d="M0.360369 19.4877C0.415295 20.5515 1.54237 20.0559 2.04549 19.7251C2.52664 19.4048 2.66944 19.6733 2.71338 19.0543C2.75897 18.6463 2.77731 18.2359 2.76831 17.8257C2.01811 17.7554 1.26585 17.9391 0.645983 18.3441C0.328513 18.5515 -0.240517 19.2327 0.361468 19.4908" fill="#373737"/>
<path d="M22.8251 32.5629C23.6896 33.0688 25.2759 34.5971 23.9741 35.3415C22.7262 36.4156 22.0265 34.1533 20.9324 33.8444C21.4025 33.2347 21.9935 32.6769 22.8251 32.5639V32.5629Z" fill="#373737"/>
<path d="M7.35243 34.2881C6.33521 34.4322 5.76618 35.3 4.91264 35.7396C4.11402 36.1834 3.80753 35.5955 3.74162 35.4711C3.62079 35.4193 3.63177 35.523 3.43514 35.3374C2.69144 34.2321 4.2041 33.4265 4.98844 32.8791C6.08695 32.6717 6.77242 33.5706 7.35243 34.284V34.2881Z" fill="#373737"/>
<path d="M27.6289 19.354C27.574 20.4177 26.4469 19.9221 25.9438 19.5914C25.4626 19.271 25.3198 19.5396 25.2759 18.9206C25.2303 18.5125 25.212 18.1022 25.221 17.692C25.9712 17.6216 26.7234 17.8054 27.3433 18.2104C27.6498 18.4177 28.2298 19.0989 27.6278 19.3571" fill="#373737"/>
<path d="M24.6409 6.38245C28.5472 5.08125 25.4945 0.0309695 22.0913 2.2601C19.8591 0.453987 16.7844 0.123245 13.5569 0.123245C10.391 0.361711 7.38548 0.912255 5.28403 2.64372C1.89182 0.578403 -1.23785 5.53538 2.74536 6.78473C1.62927 10.8749 2.89806 15.047 2.72339 19.2088C2.55971 22.9475 1.51503 27.9563 3.71864 31.3125C5.58612 34.1834 9.61656 35.2057 12.9319 35.3197C17.1666 35.4638 22.2989 34.483 24.3564 30.6105C26.326 26.9237 25.779 22.3275 25.5274 18.3513C25.2759 14.3337 25.7471 10.2549 24.6409 6.38141V6.38245Z" fill="#373737"/>
<path d="M27.9248 18.7237C27.8035 18.4899 27.6278 18.285 27.4107 18.1244C26.8749 17.778 26.2431 17.5877 25.5938 17.577C25.5718 16.9362 25.5498 16.2343 25.5498 15.3458V14.5402C25.5388 12 25.5059 10.8844 25.3532 9.48989C25.2451 8.45921 25.0541 7.43778 24.782 6.43442C25.6685 6.11405 26.2485 5.58735 26.4781 4.90617C26.6978 4.27579 26.5879 3.5635 26.2155 2.93624C25.8427 2.31985 25.2305 1.86442 24.5084 1.66615C23.7395 1.47019 22.9112 1.61431 22.1126 2.12027C21.3824 1.54685 20.554 1.09523 19.6629 0.784863C18.0327 0.216693 16.1389 0 13.5683 0V0.103681L13.5574 0C10.8111 0.207361 8.77553 0.609642 7.09041 1.38414C6.43806 1.67774 5.8306 2.05298 5.28446 2.49974C4.47485 2.02488 3.63669 1.91083 2.85564 2.1379C2.12439 2.35404 1.50923 2.82736 1.13757 3.45982C0.765173 4.0902 0.67839 4.80767 0.929949 5.42976C1.18151 6.05184 1.76152 6.53499 2.62605 6.83463C2.34472 7.93743 2.1973 9.06687 2.18665 10.2011C2.16468 11.3893 2.2196 12.339 2.41624 14.4873C2.55795 16.0881 2.61287 16.8212 2.63594 17.7097C1.9095 17.6692 1.18945 17.8582 0.58941 18.2468C0.366926 18.4031 0.190361 18.6105 0.0764048 18.8491C-0.0653034 19.1384 -0.0114763 19.3966 0.273039 19.5511C0.316979 20.0467 0.612479 20.2768 1.06067 20.2322C1.44563 20.175 1.80992 20.0297 2.12184 19.8092C2.19341 19.7601 2.27038 19.7184 2.35143 19.6848C2.38438 19.6744 2.40635 19.6641 2.43931 19.6537C2.43931 19.6537 2.50522 19.633 2.52719 19.6226C2.55942 19.6152 2.58947 19.601 2.61507 19.5811C2.5931 20.0664 2.54916 20.5723 2.45139 21.7294C2.34154 23.0306 2.28771 23.7429 2.26574 24.5381C2.16688 27.492 2.53927 29.6402 3.65536 31.3437C4.00778 31.8802 4.43861 32.3671 4.93513 32.79C4.83626 32.8523 4.42102 33.1415 4.2892 33.2338C3.83002 33.5645 3.51255 33.8434 3.32581 34.1534C3.20512 34.3394 3.14401 34.5544 3.14986 34.7724C3.15571 34.9904 3.22826 35.2021 3.35876 35.3821L3.36975 35.3924L3.38073 35.4028C3.50157 35.5169 3.56638 35.5469 3.65426 35.5469H3.69051C3.7015 35.5677 3.71248 35.578 3.72347 35.5988C3.75385 35.645 3.78685 35.6896 3.82233 35.7325C4.09586 36.0321 4.48144 36.1047 4.99335 35.8155C5.26688 35.6817 5.46351 35.5262 5.87985 35.1934L5.90182 35.1726C6.56972 34.6356 6.89707 34.4396 7.3903 34.367L7.56497 34.3359C7.63088 34.367 7.69679 34.3878 7.77259 34.4189C9.32589 35.0078 11.1318 35.3282 12.9598 35.3893C15.3238 35.4723 17.5999 35.1934 19.5256 34.5319C20.0248 34.3601 20.5111 34.1564 20.9811 33.9222C21.2656 34.0259 21.5062 34.2426 21.9698 34.7517C21.9843 34.7627 21.9956 34.7769 22.0027 34.7932C22.0247 34.8139 22.0247 34.8243 22.0357 34.8346C22.0577 34.8657 22.0906 34.8865 22.1126 34.9176C22.474 35.3199 22.7146 35.5169 22.9914 35.6299C23.3528 35.774 23.7021 35.7024 24.0635 35.3924C24.6985 35.0202 24.7424 34.4427 24.3261 33.7812C23.9859 33.2833 23.5433 32.8549 23.0243 32.5215C23.61 31.9776 24.0979 31.3472 24.4689 30.6553C25.5191 28.6719 25.9244 26.3587 25.897 23.3841C25.886 22.3307 25.842 21.4142 25.7223 19.6516V19.5998C25.7814 19.6232 25.8365 19.6547 25.886 19.6931C26.2254 19.9098 26.6187 20.0861 26.9471 20.1161C27.3953 20.1576 27.6908 19.9305 27.7348 19.4349C28.0083 19.2701 28.0643 19.0119 27.9204 18.7227L27.9248 18.7237ZM24.4447 1.87973C24.7764 1.96875 25.0862 2.11859 25.3565 2.32068C25.6268 2.52278 25.8523 2.77317 26.02 3.05754C26.1927 3.32573 26.3042 3.62495 26.3475 3.9361C26.3908 4.24725 26.365 4.56351 26.2715 4.8647C26.0639 5.47434 25.5388 5.95957 24.7183 6.24883C24.5546 5.69586 24.361 5.15116 24.1382 4.6169C24.4557 4.35874 24.6084 4.03836 24.3579 3.58009C24.1075 3.12183 23.6681 3.07413 23.2199 3.20788C22.9383 2.86801 22.6271 2.55102 22.2894 2.26024C23.0112 1.82685 23.756 1.70244 24.4447 1.87766V1.87973ZM1.1156 5.37066C0.886009 4.81286 0.962905 4.15241 1.31223 3.57387C1.6581 2.98822 2.23037 2.55137 2.90947 2.35459C3.61032 2.15863 4.365 2.25091 5.1065 2.66563C4.67745 3.03039 4.29646 3.44255 3.97173 3.89321C3.4027 3.61431 2.82269 3.56247 2.49423 4.12649C2.15479 4.73613 2.54916 5.11768 3.1072 5.40695C3.03031 5.58217 2.95451 5.76879 2.8875 5.95438C2.8106 6.18144 2.73481 6.41887 2.6678 6.6563C1.87028 6.37221 1.34519 5.92846 1.1156 5.37066ZM2.43931 19.4474C2.42832 19.4474 2.36241 19.4681 2.36241 19.4785C2.32757 19.4879 2.29429 19.5019 2.26354 19.52C2.16933 19.5562 2.08096 19.6047 2.001 19.6641C1.71863 19.8653 1.38748 19.9968 1.0376 20.0467C0.70805 20.0778 0.5235 19.943 0.488347 19.5718C0.717936 19.4992 0.817901 19.4474 0.904684 19.324L0.73002 19.1996C0.664109 19.2825 0.598199 19.3136 0.400466 19.3748C0.389481 19.3748 0.389481 19.3748 0.378496 19.3852C0.203832 19.2919 0.170877 19.1477 0.268645 18.9414C0.37414 18.7386 0.527458 18.5613 0.716838 18.423C1.27949 18.0542 1.9594 17.8792 2.64253 17.9274C2.64253 18.1856 2.65352 18.4458 2.64253 18.6916C2.64434 18.7196 2.64061 18.7477 2.63155 18.7745C2.62056 18.9186 2.62056 18.9819 2.60958 19.0534C2.57662 19.353 2.55465 19.3945 2.43491 19.4463L2.43931 19.4474ZM5.74363 35.0316L5.72166 35.0524C5.46122 35.281 5.175 35.4819 4.86812 35.6516C4.45178 35.8891 4.16727 35.8372 3.97063 35.6102C3.94133 35.5782 3.91557 35.5434 3.89374 35.5065C3.88275 35.4961 3.87177 35.4754 3.86078 35.465V35.4546C3.88275 35.2691 3.95965 35.1343 4.15628 34.845C4.16727 34.8346 4.16727 34.8346 4.16727 34.8243C4.25645 34.7075 4.33334 34.5829 4.39686 34.4521L4.20022 34.3691C4.13991 34.4879 4.07091 34.6026 3.9937 34.7123C3.98272 34.7227 3.98272 34.7227 3.98272 34.733C3.82889 34.9169 3.71672 35.1286 3.65316 35.3551H3.60922C3.57241 35.336 3.53904 35.3115 3.51036 35.2825C3.08413 34.6418 3.42248 34.0944 4.38917 33.4163C4.51 33.3333 4.91426 33.0648 5.02411 32.9829C5.04745 32.9807 5.06998 32.9737 5.09002 32.9622C5.71175 33.4552 6.39991 33.8683 7.13655 34.1908V34.1908C7.13655 34.2011 7.14753 34.2115 7.15852 34.2219C6.71033 34.3256 6.3599 34.5423 5.74693 35.0378L5.74363 35.0316ZM24.1163 33.9057C24.4557 34.4427 24.4458 34.8761 24.0174 35.1757C23.9844 35.1135 23.9625 35.042 23.9185 34.9383C23.9185 34.9279 23.9185 34.9279 23.9075 34.9176C23.7549 34.5246 23.656 34.3598 23.4681 34.1742L23.3154 34.3183C23.4791 34.4624 23.556 34.6179 23.7098 34.9798C23.7098 34.9902 23.7098 34.9902 23.7208 35.0005C23.7757 35.1343 23.8087 35.2172 23.8416 35.2898C23.5571 35.5169 23.3056 35.5583 23.043 35.4443C22.8134 35.351 22.5948 35.155 22.2444 34.7828C22.2198 34.7571 22.1978 34.7293 22.1785 34.6998C22.1649 34.688 22.1538 34.674 22.1455 34.6584C22.131 34.6474 22.1197 34.6331 22.1126 34.6169C21.7072 34.1731 21.4667 33.9357 21.2041 33.8009C21.7986 33.4827 22.3516 33.0999 22.8519 32.6604C23.3111 32.9808 23.8263 33.4557 24.1108 33.9046L24.1163 33.9057ZM24.269 30.5599C23.3275 32.3463 21.6644 33.6071 19.4355 34.3712C17.5318 35.0223 15.2776 35.2908 12.9466 35.2079C8.93042 35.0741 5.45143 33.7564 3.82014 31.2525C2.72162 29.5936 2.36461 27.4723 2.46347 24.5599C2.49643 23.7646 2.54037 23.0524 2.64912 21.7512C2.76996 20.2851 2.80182 19.8611 2.83477 19.2006C2.85674 18.7258 2.85674 18.2405 2.84576 17.7242C2.82379 16.8149 2.76886 16.0923 2.62605 14.4707C2.42832 12.3173 2.3723 11.3841 2.39537 10.2032C2.42832 8.65423 2.64693 7.29083 3.1061 6C3.8498 3.90358 5.21745 2.48834 7.18708 1.56973C8.84034 0.808709 10.8429 0.412649 13.5683 0.206325C16.118 0.206325 17.9778 0.423017 19.5871 0.980819C21.5128 1.65163 22.9463 2.82945 23.9317 4.6366C24.5667 6.10264 24.938 7.68377 25.1401 9.5013C25.2928 10.8854 25.3257 12.001 25.3367 14.5308V15.3364C25.3477 16.5858 25.3697 17.464 25.4246 18.3432C25.4466 18.6843 25.4575 18.8284 25.5125 19.6444C25.6333 21.3997 25.6762 22.309 25.6871 23.3624C25.7091 26.3266 25.3147 28.6086 24.2755 30.5609L24.269 30.5599ZM27.6172 19.2514C27.6062 19.2514 27.5953 19.2411 27.5843 19.2411C27.4579 19.2162 27.3427 19.155 27.2547 19.0658L27.0801 19.1903C27.1789 19.3147 27.2767 19.3655 27.4964 19.4381C27.4525 19.8103 27.2668 19.944 26.9471 19.9129C26.6626 19.8922 26.288 19.7273 25.9837 19.5303C25.9012 19.4747 25.8133 19.4264 25.7212 19.3862C25.7102 19.3862 25.6992 19.3758 25.6882 19.3758C25.6443 18.8077 25.6443 18.6636 25.6223 18.3639L25.5894 17.8061C26.1891 17.8093 26.7734 17.9858 27.2635 18.3121C27.4529 18.4503 27.6062 18.6276 27.7117 18.8305C27.8215 19.0057 27.7996 19.1612 27.6128 19.2535L27.6172 19.2514Z" fill="black"/>
<path d="M15.2157 10.7744C15.2267 11.3011 15.3365 11.8796 15.2377 12.4333C15.085 12.7018 14.7983 12.7329 14.5478 12.8356C14.3753 12.81 14.2126 12.7435 14.0748 12.6423C13.937 12.5411 13.8288 12.4085 13.7602 12.257C13.6723 11.6267 13.7821 11.0284 13.8151 10.398C13.8151 10.3773 14.2314 10.4084 14.6027 10.5121C14.8178 10.5733 15.0238 10.66 15.2157 10.7703V10.7744Z" fill="white"/>
<path d="M12.1188 10.8159C11.8123 11.9107 12.5242 13.6971 13.6941 12.2311C13.6062 11.609 13.7051 11.0129 13.738 10.4032C13.749 10.3514 12.1298 10.7443 12.1188 10.8179V10.8159Z" fill="white"/>
<path d="M15.3463 11.2596C15.3243 10.9486 15.3133 10.8262 15.3133 10.6707V10.5981L15.2364 10.5774L13.8578 10.1751V10.1025L13.7161 10.1336H13.7051V10.1398L12.1485 10.5162L12.0936 10.5266L12.0716 10.5784C11.8311 11.1259 11.886 11.9522 12.1925 12.4581C12.5429 13.0367 13.1119 13.0471 13.6919 12.3856C13.7727 12.5328 13.8891 12.66 14.0317 12.7569C14.1742 12.8538 14.339 12.9177 14.5125 12.9434H14.5455L14.5784 12.933C14.6224 12.9123 14.6663 12.9019 14.7421 12.8708C14.7531 12.8708 14.7531 12.8708 14.7641 12.8604C15.0816 12.7567 15.2123 12.6748 15.3221 12.4778L15.3331 12.4675V12.4467C15.3652 12.2485 15.3799 12.048 15.3771 11.8475C15.3771 11.693 15.3661 11.5478 15.3441 11.2586L15.3463 11.2596ZM13.5953 10.877C13.5843 11.0626 13.5733 11.1352 13.5623 11.2389C13.538 11.5586 13.5416 11.8797 13.5733 12.1989C13.0592 12.821 12.6538 12.821 12.3803 12.3534C12.1178 11.92 12.0628 11.186 12.2595 10.7008L13.6381 10.37C13.6271 10.5038 13.6161 10.6386 13.5942 10.876L13.5953 10.877ZM15.1277 12.4053C15.0508 12.5297 14.953 12.5909 14.6883 12.6738C14.6773 12.6738 14.6773 12.6738 14.6663 12.6842C14.6004 12.7049 14.5565 12.7256 14.5246 12.736C14.379 12.7109 14.2421 12.6526 14.1257 12.5662C14.0093 12.4799 13.917 12.368 13.8567 12.2404C13.825 11.9247 13.8213 11.607 13.8457 11.2907C13.8567 11.187 13.8567 11.1155 13.8787 10.9289C13.9007 10.6914 13.9116 10.5463 13.9116 10.4105L15.1046 10.7516C15.1046 10.8853 15.1156 11.0097 15.1376 11.2783C15.1596 11.5468 15.1705 11.7013 15.1705 11.8672C15.1735 12.0471 15.1588 12.2269 15.1266 12.4042L15.1277 12.4053Z" fill="black"/>
<path d="M5.53218 6.27462C6.53842 9.97187 12.8087 9.02216 12.5627 5.31454C12.2836 0.873898 4.56878 1.73134 5.53218 6.27462Z" fill="white"/>
<path d="M12.6768 5.30418C12.6109 4.23005 12.1078 3.39334 11.2762 2.86665C10.5325 2.39179 9.54718 2.20516 8.5739 2.31921C7.60062 2.43326 6.70203 2.85628 6.10664 3.50428C5.44753 4.23005 5.19817 5.17769 5.42776 6.27256L5.52662 6.25182L5.42776 6.27256C6.45597 10.0735 12.9119 9.15385 12.6714 5.30211L12.6768 5.30418ZM5.62988 6.2539C5.41018 5.21087 5.65185 4.32232 6.26482 3.65151C6.82287 3.04187 7.66543 2.63959 8.59587 2.52554C9.52631 2.41149 10.4557 2.58775 11.1565 3.04394C11.9332 3.53953 12.4044 4.31403 12.4747 5.33632C12.6977 8.93923 6.60427 9.80703 5.62988 6.2539Z" fill="black"/>
<path d="M7.26136 6.75052C7.84742 6.75052 8.32252 6.26498 8.32252 5.66603C8.32252 5.06707 7.84742 4.58153 7.26136 4.58153C6.67529 4.58153 6.2002 5.06707 6.2002 5.66603C6.2002 6.26498 6.67529 6.75052 7.26136 6.75052Z" fill="black"/>
<path d="M7.74253 6.19273C7.88146 6.19273 7.99408 6.06787 7.99408 5.91383C7.99408 5.7598 7.88146 5.63493 7.74253 5.63493C7.60359 5.63493 7.49097 5.7598 7.49097 5.91383C7.49097 6.06787 7.60359 6.19273 7.74253 6.19273Z" fill="white"/>
<path d="M14.3248 5.58412C15.1014 9.82881 22.4538 8.70284 21.3937 4.42705C20.4413 0.58464 14.0622 1.6484 14.3248 5.58412Z" fill="white"/>
<path d="M21.4925 4.4063C20.5181 0.450888 13.9534 1.53435 14.2159 5.59448V5.60485C14.5773 7.60796 16.4701 8.63129 18.5605 8.30055C19.5129 8.14606 20.3665 7.71164 20.9245 7.07193C21.5375 6.35965 21.7561 5.44 21.4936 4.40734L21.4925 4.4063ZM20.7598 6.94648C20.2336 7.54782 19.435 7.96255 18.5265 8.10355C16.5492 8.4146 14.7729 7.45244 14.4235 5.57375C14.183 1.75208 20.3764 0.729789 21.2958 4.44778C21.5364 5.42859 21.3398 6.28603 20.7598 6.94751V6.94648Z" fill="black"/>
<path d="M16.1307 6.48199C16.7047 6.48199 17.1699 5.99644 17.1699 5.39749C17.1699 4.79854 16.7047 4.31299 16.1307 4.31299C15.5568 4.31299 15.0916 4.79854 15.0916 5.39749C15.0916 5.99644 15.5568 6.48199 16.1307 6.48199Z" fill="black"/>
<path d="M16.6117 5.92521C16.7445 5.92521 16.8522 5.80035 16.8522 5.64631C16.8522 5.49228 16.7445 5.36742 16.6117 5.36742C16.4788 5.36742 16.3711 5.49228 16.3711 5.64631C16.3711 5.80035 16.4788 5.92521 16.6117 5.92521Z" fill="white"/>
<path d="M12.3441 8.58464C11.4796 8.65722 10.7799 9.62145 11.228 10.3814C11.819 11.3934 13.1427 10.2881 13.9633 10.3918C14.9157 10.4125 15.6924 11.3415 16.4471 10.5566C17.2896 9.68884 16.0857 8.84177 15.1289 8.4706L12.3441 8.58464Z" fill="#373737"/>
<path d="M16.5569 9.27722C16.2614 8.92574 15.7473 8.60641 15.1892 8.38868L15.1672 8.37831H15.1453L12.3441 8.48199C11.3697 8.56494 10.6699 9.6287 11.1357 10.4343C11.2072 10.5735 11.317 10.6919 11.4536 10.7773C11.5903 10.8627 11.7487 10.9118 11.9124 10.9195C12.1639 10.9299 12.4265 10.878 12.8318 10.7443C12.8648 10.7339 12.9087 10.7236 12.9636 10.7028C13.5129 10.5276 13.7326 10.4758 13.9523 10.5069H13.9633C14.2258 10.5069 14.4444 10.5795 14.8608 10.7339C15.3199 10.9092 15.4627 10.961 15.6923 10.9817C15.8515 10.9928 16.0111 10.9676 16.1577 10.9082C16.3043 10.8488 16.4337 10.7571 16.5349 10.6406C16.9611 10.1969 16.9402 9.72097 16.5569 9.27722V9.27722ZM16.3712 10.4955C16.292 10.5893 16.1898 10.6637 16.0735 10.7123C15.9572 10.7608 15.8302 10.7821 15.7033 10.7744C15.5067 10.764 15.3738 10.7122 14.9344 10.5473C14.495 10.3825 14.2555 10.3099 13.971 10.2995C13.6974 10.2684 13.4679 10.3202 12.8878 10.5069C12.8329 10.5276 12.789 10.538 12.756 10.5483C11.9574 10.8065 11.574 10.7858 11.3115 10.3317C10.9171 9.66084 11.5191 8.75156 12.3397 8.67898L15.1079 8.5753C15.633 8.78267 16.1032 9.08127 16.3767 9.40475C16.7063 9.77696 16.7162 10.1481 16.3657 10.4996L16.3712 10.4955Z" fill="black"/>
<path d="M15.354 8.14086C15.0145 6.96305 12.1683 7.13931 12.2353 8.54315C12.377 9.58617 15.6824 9.30727 15.354 8.14086Z" fill="black"/>
</g>
</svg>
