<svg width="44" height="44" viewBox="0 0 44 44" fill="none" xmlns="http://www.w3.org/2000/svg">
<g opacity="0.5" clip-path="url(#clip0)" filter="url(#filter0_d)">
<path d="M38.4374 0.5979H4.82613C4.50565 0.5979 4.24664 0.857523 4.24664 1.17738V34.7886C4.24664 35.1086 4.50565 35.3682 4.82613 35.3682H38.4374C38.7578 35.3682 39.0168 35.1086 39.0168 34.7887V1.17738C39.0169 0.857523 38.7579 0.5979 38.4374 0.5979ZM23.9498 27.2551C23.9498 30.1306 21.6103 32.4706 18.7342 32.4706C15.8581 32.4706 13.5187 30.1306 13.5187 27.2551C13.5187 26.9352 13.7777 26.6756 14.0982 26.6756C14.4186 26.6756 14.6777 26.9352 14.6777 27.2551C14.6777 29.492 16.4979 31.3116 18.7342 31.3116C20.9705 31.3116 22.7907 29.4919 22.7907 27.2551V13.347C22.7907 13.0271 23.0497 12.7675 23.3702 12.7675C23.6906 12.7675 23.9496 13.0271 23.9496 13.347V27.2551H23.9498ZM30.9038 22.0396C33.7799 22.0396 36.1194 24.3796 36.1194 27.2551C36.1194 30.1306 33.7799 32.4706 30.9038 32.4706C28.0277 32.4706 25.6883 30.1306 25.6883 27.2551C25.6883 26.9352 25.9473 26.6756 26.2678 26.6756C26.5882 26.6756 26.8473 26.9352 26.8473 27.2551C26.8473 29.492 28.6675 31.3116 30.9038 31.3116C33.1401 31.3116 34.9603 29.4919 34.9603 27.2551C34.9603 25.0182 33.1401 23.1986 30.9038 23.1986C28.0277 23.1986 25.6882 20.8585 25.6882 17.983C25.6882 15.1076 28.0277 12.7675 30.9038 12.7675C33.7799 12.7675 36.1193 15.1076 36.1193 17.983C36.1193 18.3029 35.8603 18.5625 35.5398 18.5625C35.2194 18.5625 34.9603 18.3029 34.9603 17.983C34.9603 15.7461 33.1401 13.9265 30.9038 13.9265C28.6675 13.9265 26.8473 15.7462 26.8473 17.983C26.8473 20.2199 28.6675 22.0396 30.9038 22.0396Z" fill="black"/>
</g>
<defs>
<filter id="filter0_d" x="0.246643" y="0.5979" width="42.7703" height="42.7703" filterUnits="userSpaceOnUse" color-interpolation-filters="sRGB">
<feFlood flood-opacity="0" result="BackgroundImageFix"/>
<feColorMatrix in="SourceAlpha" type="matrix" values="0 0 0 0 0 0 0 0 0 0 0 0 0 0 0 0 0 0 127 0"/>
<feOffset dy="4"/>
<feGaussianBlur stdDeviation="2"/>
<feColorMatrix type="matrix" values="0 0 0 0 0 0 0 0 0 0 0 0 0 0 0 0 0 0 0.25 0"/>
<feBlend mode="normal" in2="BackgroundImageFix" result="effect1_dropShadow"/>
<feBlend mode="normal" in="SourceGraphic" in2="effect1_dropShadow" result="shape"/>
</filter>
<clipPath id="clip0">
<rect width="34.7703" height="34.7703" fill="white" transform="translate(4.24664 0.5979)"/>
</clipPath>
</defs>
</svg>
