<svg width="27" height="49" viewBox="0 0 27 49" fill="none" xmlns="http://www.w3.org/2000/svg">
<g opacity="0.8">
<path fill-rule="evenodd" clip-rule="evenodd" d="M14.2177 48.7721L12.7652 48.3369C12.7652 48.3369 12.9426 41.8459 10.2848 41.3801C8.51364 39.5784 10.569 -35.0252 16.9465 41.1314C16.9465 41.1314 14.7495 42.0939 14.3598 43.7404C13.9343 45.3556 14.2177 48.7721 14.2177 48.7721V48.7721Z" fill="white"/>
<path fill-rule="evenodd" clip-rule="evenodd" d="M14.2177 48.7721L12.7652 48.3369C12.7652 48.3369 12.9426 41.8459 10.2848 41.3801C8.51364 39.5784 10.569 -35.0252 16.9465 41.1314C16.9465 41.1314 14.7495 42.0939 14.3598 43.7404C13.9343 45.3556 14.2177 48.7721 14.2177 48.7721V48.7721Z" fill="#A6A385"/>
<path fill-rule="evenodd" clip-rule="evenodd" d="M14.9975 42.4983C14.9975 42.4983 27.7179 35.1681 24.7411 19.9179C21.8714 8.83036 15.1038 5.19643 14.3597 3.79867C13.545 2.80478 12.7652 1.06573 12.7652 1.06573L13.2969 31.9068C13.2969 31.9381 12.1984 41.3489 14.9979 42.4986" fill="white"/>
<path fill-rule="evenodd" clip-rule="evenodd" d="M14.9975 42.4983C14.9975 42.4983 27.7179 35.1681 24.7411 19.9179C21.8714 8.83036 15.1038 5.19643 14.3597 3.79867C13.545 2.80478 12.7652 1.06573 12.7652 1.06573L13.2969 31.9068C13.2969 31.9381 12.198 41.3485 14.9975 42.4983Z" fill="#919191"/>
<path fill-rule="evenodd" clip-rule="evenodd" d="M12.0215 42.9018C12.0215 42.9018 0.080416 35.7581 0.7892 23.1796C1.46228 10.6007 9.89511 4.41993 11.525 3.30185C12.5882 2.30796 12.6235 1.93505 12.6945 0.941162C13.4386 2.33893 13.297 21.844 13.4029 24.1421C13.7216 32.9939 12.8362 41.225 12.0215 42.9018Z" fill="white"/>
<path fill-rule="evenodd" clip-rule="evenodd" d="M12.0215 42.9018C12.0215 42.9018 0.080416 35.7581 0.7892 23.1796C1.46228 10.6007 9.89511 4.41993 11.525 3.30185C12.5882 2.30796 12.6235 1.93505 12.6945 0.941162C13.4386 2.33893 13.297 21.8441 13.4029 24.1421C13.7216 32.9939 12.8362 41.225 12.0215 42.9018Z" fill="#AAAAAA"/>
</g>
</svg>
