<svg width="35" height="40" viewBox="0 0 35 40" fill="none" xmlns="http://www.w3.org/2000/svg">
<path d="M34.6368 38.6849C34.0412 37.7189 33.0763 36.9173 32.0548 36.0685C30.9548 35.1562 29.8251 34.2179 29.2592 33.1274C31.4062 32.6115 34.1225 31.6764 34.2534 31.6316C34.4869 31.5511 34.67 31.3403 34.7394 31.0717C34.8094 30.8031 34.757 30.5118 34.6 30.2969C34.4599 30.1057 31.1713 25.6664 25.863 23.4886C25.6289 22.9491 25.3678 22.2574 25.0644 21.4574C22.9266 15.8146 18.4884 4.10399 6.77895 2.52844C5.84587 1.80336 3.40044 0 2.17311 0C0.6501 0 0 0.747892 0 2.5C0 3.3529 0.603378 4.34977 1.58739 5.90657C2.0684 6.66751 2.87347 7.94111 2.89751 8.33338C2.89751 9.69729 4.27268 14.113 5.65566 16.0018C5.61607 16.0987 5.57641 16.1939 5.5375 16.2883C4.92488 17.7735 4.34622 19.1764 4.34622 22.5C4.34622 26.8767 6.16845 29.1667 7.96805 29.1667C9.08503 29.1667 9.64101 27.7083 9.90844 26.001C10.9009 28.3179 12.5223 31.3363 14.7937 33.1812C15.1213 33.4448 15.5733 33.3553 15.8039 32.9809C16.0345 32.6041 15.9567 32.0849 15.6298 31.8188C12.0278 28.894 10.1242 22.3079 10.1051 22.2411C9.99475 21.8522 9.64814 21.6112 9.30289 21.6772C8.95132 21.7414 8.69238 22.0906 8.69238 22.4999C8.69238 24.7883 8.31324 27.2265 7.96799 27.4999C6.9232 27.4999 5.79487 25.5883 5.79487 22.4999C5.79487 19.5514 6.2589 18.4268 6.84605 17.0026C6.95572 16.7365 7.06886 16.4631 7.18139 16.1718C7.31082 15.8357 7.23443 15.4417 6.99253 15.2017C5.8763 14.0959 4.34622 9.4401 4.34622 8.3333C4.34622 7.48041 3.74285 6.48353 2.75883 4.92673C2.27783 4.16579 1.47276 2.89219 1.44872 2.49993C1.44872 1.66657 1.44872 1.66657 2.17311 1.66657C2.76026 1.66657 4.67375 2.88805 6.10977 4.02087C6.20811 4.09821 6.32199 4.14704 6.44151 4.16165C17.4507 5.53532 21.5401 16.3264 23.7366 22.1239C24.1065 23.1005 24.4263 23.9444 24.7149 24.5613C24.8019 24.7476 24.9469 24.8885 25.1202 24.956C28.7357 26.3655 31.4316 28.9997 32.695 30.4142C31.4613 30.8122 29.4912 31.4176 28.1316 31.678C27.9321 31.7163 27.7553 31.849 27.6449 32.0434C27.5339 32.238 27.4985 32.4764 27.548 32.7018C27.9929 34.7526 29.7006 36.1702 31.2066 37.4202C32.1284 38.1852 32.9984 38.9079 33.454 39.6484C33.5955 39.878 33.8191 40 34.0461 40C34.1911 40 34.3369 39.9504 34.4642 39.847C34.7903 39.5809 34.8681 39.0609 34.6368 38.6849ZM6.51934 6.66665C6.51934 7.12728 6.84333 7.50002 7.24373 7.50002C7.64338 7.50002 7.96812 7.87353 7.96812 8.33338C7.96812 8.794 8.29212 9.16674 8.69252 9.16674C9.09291 9.16674 9.41691 8.794 9.41691 8.33338C9.41691 6.95478 8.44213 5.83337 7.2438 5.83337C6.84333 5.83329 6.51934 6.20603 6.51934 6.66665Z" fill="black"/>
</svg>
