<svg width="48" height="41" viewBox="0 0 48 41" fill="none" xmlns="http://www.w3.org/2000/svg">
<g opacity="0.5">
<path d="M38.9945 13.5032C38.5007 13.3398 38.0026 13.1884 37.5008 13.0492C37.5841 12.7231 37.661 12.3955 37.7317 12.0666C38.8623 6.77262 38.1231 2.50783 35.5985 1.10393C33.1781 -0.242535 29.2193 1.16137 25.2212 4.51723C24.8272 4.84866 24.442 5.18965 24.0659 5.53985C23.814 5.30699 23.5577 5.07864 23.2971 4.85493C19.107 1.26634 14.907 -0.245704 12.3851 1.16236C9.96689 2.51259 9.25063 6.52207 10.2685 11.5391C10.3698 12.036 10.4842 12.5302 10.6115 13.0215C10.0172 13.1843 9.44325 13.3578 8.89415 13.5424C3.9818 15.1943 0.844482 17.7834 0.844482 20.4688C0.844482 23.2425 4.2122 26.0246 9.32907 27.7113C9.74398 27.8475 10.1623 27.9736 10.5838 28.0897C10.4468 28.6189 10.3253 29.1517 10.2193 29.6875C9.24878 34.6174 10.0067 38.5318 12.4185 39.8737C14.9096 41.2592 19.0905 39.8351 23.1618 36.4025C23.4835 36.1312 23.8066 35.8434 24.13 35.5417C24.5374 35.9209 24.9556 36.2889 25.3843 36.6456C29.3278 39.9186 33.2224 41.2404 35.6322 39.8949C38.121 38.5052 38.9297 34.3001 37.8795 29.1838C37.7994 28.793 37.706 28.3939 37.6013 27.9874C37.8949 27.9039 38.183 27.8175 38.4641 27.7276C43.7835 26.0278 47.2442 23.2796 47.2442 20.4688C47.2442 17.7737 44.0059 15.1671 38.9945 13.5032Z" fill="black"/>
<path d="M37.8406 25.9129C37.587 25.9939 37.3266 26.0721 37.0613 26.148C36.474 24.3549 35.6814 22.4481 34.7117 20.4783C35.6372 18.5551 36.3991 16.6728 36.9699 14.8912C37.4445 15.0239 37.9053 15.1636 38.3493 15.3111C42.6431 16.7366 45.2621 18.8446 45.2621 20.4688C45.2621 22.1989 42.4334 24.445 37.8408 25.9129H37.8406ZM35.935 29.5552C36.3993 31.8175 36.4656 33.8629 36.158 35.4619C35.8816 36.8987 35.3259 37.8566 34.6388 38.2402C33.1765 39.0567 30.0493 37.9954 26.677 35.1963C26.2904 34.8754 25.9008 34.5328 25.5102 34.1703C26.8177 32.791 28.1243 31.1874 29.3996 29.4068C31.6428 29.2149 33.762 28.9009 35.6838 28.4725C35.7783 28.8409 35.8625 29.202 35.935 29.5552ZM16.663 38.0992C15.2344 38.5858 14.0966 38.5997 13.4089 38.2172C11.9451 37.4032 11.3369 34.2599 12.1667 30.044C12.2654 29.5458 12.3784 29.0503 12.5055 28.5581C14.406 28.9635 16.5098 29.2553 18.7584 29.4312C20.042 31.1736 21.3864 32.7751 22.7413 34.1777C22.4534 34.4463 22.1586 34.7081 21.8573 34.9628C20.057 36.4808 18.253 37.5575 16.6632 38.0992H16.663ZM9.97008 25.9022C7.70755 25.1563 5.83908 24.1869 4.55833 23.1292C3.40755 22.1785 2.82642 21.2347 2.82642 20.4688C2.82642 18.8393 5.34543 16.7606 9.54665 15.3478C10.074 15.1712 10.6065 15.0096 11.1437 14.8631C11.7244 16.6847 12.486 18.5893 13.4052 20.5153C12.4741 22.4701 11.7016 24.405 11.1155 26.248C10.7308 26.1418 10.3489 26.0265 9.97008 25.9022ZM12.2137 11.1719C11.3416 6.87324 11.9207 3.63067 13.378 2.81701C14.9305 1.95027 18.3629 3.18621 21.9807 6.28458C22.2119 6.48265 22.4442 6.69003 22.6768 6.90453C21.3289 8.30071 19.9968 9.89021 18.7243 11.6225C16.5421 11.8176 14.453 12.1309 12.5326 12.5506C12.4143 12.0937 12.308 11.6339 12.2137 11.1717V11.1719ZM32.2284 15.9388C31.7748 15.1831 31.3044 14.4368 30.8175 13.7006C32.298 13.8809 33.7164 14.1205 35.0483 14.4139C34.6485 15.65 34.1501 16.9426 33.5632 18.2677C33.1344 17.4829 32.6894 16.7064 32.2284 15.9388ZM24.0664 8.2708C24.9807 9.22608 25.8963 10.2929 26.797 11.4502C24.97 11.3669 23.1399 11.3665 21.3129 11.449C22.2144 10.3024 23.1379 9.23718 24.0664 8.2708ZM15.8521 15.9519C15.3969 16.7134 14.9602 17.4851 14.5424 18.2663C13.9651 16.9458 13.4713 15.6474 13.068 14.3937C14.3919 14.1079 15.8036 13.8743 17.2745 13.6971C16.7822 14.4378 16.3079 15.1896 15.8521 15.9519ZM17.3168 27.377C15.7973 27.2134 14.3641 26.9918 13.0407 26.7139C13.4503 25.4379 13.9551 24.1117 14.5446 22.7628C14.9642 23.5446 15.4028 24.3167 15.8601 25.0786C16.3267 25.8558 16.8124 26.6222 17.3168 27.377ZM24.1213 32.8019C23.1818 31.824 22.2448 30.7426 21.3296 29.5793C22.2179 29.613 23.1237 29.63 24.0443 29.63C24.9901 29.63 25.9251 29.6096 26.8452 29.57C25.9417 30.7545 25.0293 31.8375 24.1213 32.8019ZM33.5821 22.6941C34.2022 24.0576 34.7251 25.3767 35.1403 26.6311C33.7948 26.9272 32.3424 27.1657 30.8119 27.3427C31.3024 26.5928 31.7773 25.8335 32.2364 25.0654C32.7032 24.2847 33.1518 23.494 33.5821 22.6941ZM30.5193 24.1103C29.8165 25.288 29.0741 26.4433 28.2933 27.5745C26.9167 27.6693 25.494 27.7183 24.0443 27.7183C22.6005 27.7183 21.1959 27.6749 19.8432 27.5903C19.0423 26.4618 18.2858 25.3045 17.5756 24.1208C16.8686 22.9434 16.2083 21.7405 15.596 20.5147C16.2068 19.2886 16.8651 18.0851 17.5696 16.9068V16.9071C18.2739 15.7285 19.0244 14.5761 19.8194 13.4525C21.1994 13.3518 22.6142 13.2991 24.0445 13.2991C25.4811 13.2991 26.8978 13.3522 28.2773 13.4536C29.0643 14.5756 29.81 15.724 30.513 16.8966C31.2199 18.0724 31.887 19.27 32.5133 20.4876C31.8935 21.7176 31.2285 22.9259 30.5195 24.1103H30.5193ZM34.6084 2.76017C36.1621 3.62453 36.7664 7.10993 35.7902 11.6807C35.7262 11.9785 35.6567 12.2751 35.5816 12.5705C33.6566 12.142 31.5662 11.8231 29.3776 11.6251C28.1026 9.87396 26.7816 8.2817 25.4554 6.90354C25.8029 6.58041 26.1587 6.26564 26.5224 5.95955C29.948 3.08401 33.1496 1.94868 34.6084 2.76017Z" fill="white"/>
<path d="M24.0442 16.4724C26.3326 16.4724 28.1875 18.2617 28.1875 20.4688C28.1875 22.6761 26.3326 24.4654 24.0442 24.4654C21.756 24.4654 19.9009 22.6761 19.9009 20.4688C19.9009 18.2617 21.756 16.4724 24.0442 16.4724Z" fill="black"/>
</g>
</svg>
