<svg width="41" height="41" viewBox="0 0 41 41" fill="none" xmlns="http://www.w3.org/2000/svg">
<g opacity="0.5" clip-path="url(#clip0)">
<path d="M28.4087 28.521C29.9217 28.3566 31.0695 26.9883 31.0173 25.3461C30.9653 23.704 29.6608 22.3903 28.0956 22.3903H27.9913C26.3737 22.445 25.1216 23.8682 25.1738 25.565C25.2261 26.3861 25.539 27.0977 26.0086 27.5903C24.2347 31.2578 21.5216 33.9399 17.4521 36.1842C14.6868 37.7168 11.8173 38.2642 8.94777 37.8812C6.59988 37.5527 4.77378 36.458 3.62578 34.6515C1.95631 31.9694 1.79983 29.0682 3.20857 26.1672C4.19994 24.0871 5.76498 22.5544 6.75635 21.7881C6.54767 21.0765 6.23456 19.8723 6.07809 18.9966C-1.48721 24.7441 -0.704529 32.5168 1.59115 36.1842C3.31283 38.9212 6.80856 40.618 10.6694 40.618C11.7129 40.618 12.7563 40.5085 13.7999 40.2349C20.4782 38.8664 25.5392 34.7063 28.4087 28.521ZM37.5914 21.7335C33.6261 16.8617 27.7826 14.1797 21.1043 14.1797H20.2695C19.8 13.1944 18.8086 12.5374 17.713 12.5374H17.6085C15.9913 12.5922 14.7392 14.0153 14.7912 15.7123C14.8434 17.3544 16.1478 18.6681 17.713 18.6681H17.8172C18.9651 18.6134 19.9564 17.847 20.3738 16.807H21.313C25.2783 16.807 29.0347 18.0112 32.4262 20.365C35.0348 22.1713 36.9131 24.5251 37.9566 27.3714C38.8435 29.6704 38.7913 31.9146 37.8521 33.8305C36.3913 36.7316 33.9392 38.319 30.7044 38.319C28.6174 38.319 26.6348 37.6621 25.5912 37.1694C25.0174 37.7168 23.9738 38.5926 23.2433 39.1401C25.4869 40.2348 27.7826 40.837 29.9739 40.837C34.9826 40.837 38.687 37.9358 40.0958 35.0347C41.6088 31.8598 41.5043 26.3861 37.5914 21.7335ZM11.0868 29.4513C11.139 31.0935 12.4433 32.4071 14.0085 32.4071H14.113C15.7304 32.3525 16.9825 30.9292 16.9303 29.2324C16.8782 27.5901 15.5738 26.2766 14.0085 26.2766H13.9043C13.7999 26.2766 13.6432 26.2766 13.5391 26.3312C11.3999 22.609 10.513 18.5586 10.8261 14.1795C11.0346 10.8952 12.0782 8.04879 13.9043 5.695C15.4173 3.6697 18.339 2.68443 20.3217 2.62982C25.8521 2.52028 28.1998 9.74562 28.3565 12.6468C29.0347 12.811 30.1826 13.1942 30.9653 13.4679C30.339 4.60052 25.1216 0.00250244 20.1131 0.00250244C15.4173 0.00250244 11.0868 3.56048 9.36498 8.8153C6.96503 15.8217 8.53024 22.5544 11.452 27.864C11.1912 28.2471 11.0346 28.8493 11.0868 29.4515V29.4513Z" fill="black"/>
</g>
<defs>
<clipPath id="clip0">
<rect width="41" height="41" fill="white"/>
</clipPath>
</defs>
</svg>
