<svg width="42" height="42" viewBox="0 0 42 42" fill="none" xmlns="http://www.w3.org/2000/svg">
<path d="M40 0H2C0.895431 0 0 0.89543 0 2V40C0 41.1046 0.89543 42 2 42H40C41.1046 42 42 41.1046 42 40V2C42 0.895431 41.1046 0 40 0Z" fill="#1A1B23"/>
<path d="M27.8612 8.40076H24.0812C22.4104 8.40076 20.8079 9.0645 19.6264 10.246C18.445 11.4275 17.7812 13.0299 17.7812 14.7008V18.4808H14.0012V23.5208H17.7812V33.6008H22.8212V23.5208H26.6012L27.8612 18.4808H22.8212V14.7008C22.8212 14.3666 22.954 14.0461 23.1903 13.8098C23.4266 13.5735 23.747 13.4408 24.0812 13.4408H27.8612V8.40076Z" fill="white"/>
</svg>
