<svg width="42" height="42" viewBox="0 0 42 42" fill="none" xmlns="http://www.w3.org/2000/svg">
<path d="M40 0H2C0.895431 0 0 0.89543 0 2V40C0 41.1046 0.89543 42 2 42H40C41.1046 42 42 41.1046 42 40V2C42 0.895431 41.1046 0 40 0Z" fill="#1A1B23"/>
<path d="M11.535 29.3334H15.1166V20.4063L10 16.4679V27.7581C10 28.6284 10.6869 29.3334 11.535 29.3334Z" fill="white"/>
<path d="M27.3964 29.3334H30.978C31.8261 29.3334 32.513 28.6284 32.513 27.7581V16.4679L27.3964 20.4063V29.3334Z" fill="white"/>
<path d="M27.3964 13.5796V20.4062L32.513 16.4678V14.3673C32.513 12.4204 30.3474 11.3085 28.8291 12.4769L27.3964 13.5796Z" fill="white"/>
<path d="M15.1166 20.4063V13.5797L21.2566 18.3058L27.3965 13.5797V20.4063L21.2566 25.1324L15.1166 20.4063Z" fill="white"/>
<path d="M10 14.3673V16.4678L15.1166 20.4062V13.5796L13.6839 12.4769C12.1656 11.3085 10 12.4204 10 14.3673Z" fill="white"/>
</svg>
