<svg width="42" height="42" viewBox="0 0 42 42" fill="none" xmlns="http://www.w3.org/2000/svg">
<path d="M40 0H2C0.895431 0 0 0.89543 0 2V40C0 41.1046 0.89543 42 2 42H40C41.1046 42 42 41.1046 42 40V2C42 0.895431 41.1046 0 40 0Z" fill="#1A1B23"/>
<path d="M12.2256 9.54297C13.6835 9.54416 14.8859 10.7483 14.8827 12.2134C14.8792 13.7476 13.6061 14.9039 12.2077 14.8706C10.7892 14.8993 9.54269 13.7146 9.54297 12.2033C9.54297 10.7376 10.75 9.54185 12.2256 9.54297Z" fill="white"/>
<path d="M13.7763 31.6988H10.6527C10.2473 31.6988 9.9187 31.3702 9.9187 30.9648V17.6395C9.9187 17.2341 10.2473 16.9055 10.6527 16.9055H13.7763C14.1817 16.9055 14.5103 17.2341 14.5103 17.6395V30.9649C14.5102 31.3702 14.1817 31.6988 13.7763 31.6988Z" fill="white"/>
<path d="M31.7555 21.5875C31.7555 18.794 29.4909 16.5293 26.6973 16.5293H25.8961C24.3678 16.5293 23.0175 17.2919 22.2053 18.4575C22.1168 18.5845 22.0348 18.7164 21.9595 18.8526C21.9334 18.8487 21.918 18.8467 21.9176 18.8474V17.2118C21.9176 17.0435 21.7812 16.907 21.6129 16.907H17.7159C17.5476 16.907 17.4111 17.0434 17.4111 17.2118V31.3958C17.4111 31.5641 17.5475 31.7005 17.7157 31.7005L21.6977 31.7015C21.866 31.7016 22.0025 31.5651 22.0025 31.3968V23.2023C22.0025 21.7858 23.1323 20.6097 24.5487 20.5937C25.2717 20.5855 25.9272 20.8752 26.3996 21.3479C26.8659 21.8139 27.1541 22.4581 27.1541 23.1695V31.3978C27.1541 31.5661 27.2905 31.7025 27.4587 31.7026L31.4505 31.7035C31.6189 31.7036 31.7553 31.5671 31.7553 31.3988V21.5875H31.7555Z" fill="white"/>
</svg>
